<?xml version="1.0" encoding="utf-8" standalone="no"?>
<!DOCTYPE svg PUBLIC "-//W3C//DTD SVG 1.1//EN"
  "http://www.w3.org/Graphics/SVG/1.1/DTD/svg11.dtd">
<svg xmlns:xlink="http://www.w3.org/1999/xlink" width="338.439062pt" height="282.278281pt" viewBox="0 0 338.439062 282.278281" xmlns="http://www.w3.org/2000/svg" version="1.1">
 <metadata>
  <rdf:RDF xmlns:dc="http://purl.org/dc/elements/1.1/" xmlns:cc="http://creativecommons.org/ns#" xmlns:rdf="http://www.w3.org/1999/02/22-rdf-syntax-ns#">
   <cc:Work>
    <dc:type rdf:resource="http://purl.org/dc/dcmitype/StillImage"/>
    <dc:date>2026-10-08T13:01:15.349457</dc:date>
    <dc:format>image/svg+xml</dc:format>
    <dc:creator>
     <cc:Agent>
      <dc:title>Matplotlib v3.11.2, https://matplotlib.org/</dc:title>
     </cc:Agent>
    </dc:creator>
   </cc:Work>
  </rdf:RDF>
 </metadata>
 <defs>
  <style type="text/css">*{stroke-linejoin: round; stroke-linecap: butt}</style>
 </defs>
 <g id="figure_1">
  <g id="patch_1">
   <path d="M 0 282.278281 
L 338.439062 282.278281 
L 338.439062 0 
L 0 0 
L 0 282.278281 
z
" style="fill: none"/>
  </g>
  <g id="axes_1">
   <g id="patch_2">
    <path d="M 52.239063 241.077187 
L 331.239062 241.077187 
L 331.239062 19.317187 
L 52.239063 19.317187 
L 52.239063 241.077187 
z
" style="fill: none"/>
   </g>
   <g id="matplotlib.axis_1">
    <g id="xtick_1">
     <g id="line2d_1">
      <path d="M 64.66699 241.077187 
L 64.66699 19.317187 
" clip-path="url(#p1be1d10ffa)" style="fill: none; stroke: #b0b0b0; stroke-opacity: 0.3; stroke-width: 0.8; stroke-linecap: square"/>
     </g>
     <g id="line2d_2">
      <defs>
       <path id="m6aad43067b" d="M 0 0 
L 0 3.5 
" style="stroke: #000000; stroke-width: 0.8"/>
      </defs>
      <g>
       <use xlink:href="#m6aad43067b" x="64.66699" y="241.077187" style="stroke: #000000; stroke-width: 0.8"/>
      </g>
     </g>
     <g id="text_1">
      <text style="font-size: 9px; font-family: 'DejaVu Sans', 'Bitstream Vera Sans', 'Computer Modern Sans Serif', 'Lucida Grande', 'Verdana', 'Geneva', 'Lucid', 'Arial', 'Helvetica', 'Avant Garde', sans-serif; text-anchor: middle" x="64.66699" y="254.915078" transform="rotate(-0 64.66699 254.915078)">0.0</text>
     </g>
    </g>
    <g id="xtick_2">
     <g id="line2d_3">
      <path d="M 115.445041 241.077187 
L 115.445041 19.317187 
" clip-path="url(#p1be1d10ffa)" style="fill: none; stroke: #b0b0b0; stroke-opacity: 0.3; stroke-width: 0.8; stroke-linecap: square"/>
     </g>
     <g id="line2d_4">
      <g>
       <use xlink:href="#m6aad43067b" x="115.445041" y="241.077187" style="stroke: #000000; stroke-width: 0.8"/>
      </g>
     </g>
     <g id="text_2">
      <text style="font-size: 9px; font-family: 'DejaVu Sans', 'Bitstream Vera Sans', 'Computer Modern Sans Serif', 'Lucida Grande', 'Verdana', 'Geneva', 'Lucid', 'Arial', 'Helvetica', 'Avant Garde', sans-serif; text-anchor: middle" x="115.445041" y="254.915078" transform="rotate(-0 115.445041 254.915078)">0.2</text>
     </g>
    </g>
    <g id="xtick_3">
     <g id="line2d_5">
      <path d="M 166.223092 241.077187 
L 166.223092 19.317187 
" clip-path="url(#p1be1d10ffa)" style="fill: none; stroke: #b0b0b0; stroke-opacity: 0.3; stroke-width: 0.8; stroke-linecap: square"/>
     </g>
     <g id="line2d_6">
      <g>
       <use xlink:href="#m6aad43067b" x="166.223092" y="241.077187" style="stroke: #000000; stroke-width: 0.8"/>
      </g>
     </g>
     <g id="text_3">
      <text style="font-size: 9px; font-family: 'DejaVu Sans', 'Bitstream Vera Sans', 'Computer Modern Sans Serif', 'Lucida Grande', 'Verdana', 'Geneva', 'Lucid', 'Arial', 'Helvetica', 'Avant Garde', sans-serif; text-anchor: middle" x="166.223092" y="254.915078" transform="rotate(-0 166.223092 254.915078)">0.4</text>
     </g>
    </g>
    <g id="xtick_4">
     <g id="line2d_7">
      <path d="M 217.001143 241.077187 
L 217.001143 19.317187 
" clip-path="url(#p1be1d10ffa)" style="fill: none; stroke: #b0b0b0; stroke-opacity: 0.3; stroke-width: 0.8; stroke-linecap: square"/>
     </g>
     <g id="line2d_8">
      <g>
       <use xlink:href="#m6aad43067b" x="217.001143" y="241.077187" style="stroke: #000000; stroke-width: 0.8"/>
      </g>
     </g>
     <g id="text_4">
      <text style="font-size: 9px; font-family: 'DejaVu Sans', 'Bitstream Vera Sans', 'Computer Modern Sans Serif', 'Lucida Grande', 'Verdana', 'Geneva', 'Lucid', 'Arial', 'Helvetica', 'Avant Garde', sans-serif; text-anchor: middle" x="217.001143" y="254.915078" transform="rotate(-0 217.001143 254.915078)">0.6</text>
     </g>
    </g>
    <g id="xtick_5">
     <g id="line2d_9">
      <path d="M 267.779194 241.077187 
L 267.779194 19.317187 
" clip-path="url(#p1be1d10ffa)" style="fill: none; stroke: #b0b0b0; stroke-opacity: 0.3; stroke-width: 0.8; stroke-linecap: square"/>
     </g>
     <g id="line2d_10">
      <g>
       <use xlink:href="#m6aad43067b" x="267.779194" y="241.077187" style="stroke: #000000; stroke-width: 0.8"/>
      </g>
     </g>
     <g id="text_5">
      <text style="font-size: 9px; font-family: 'DejaVu Sans', 'Bitstream Vera Sans', 'Computer Modern Sans Serif', 'Lucida Grande', 'Verdana', 'Geneva', 'Lucid', 'Arial', 'Helvetica', 'Avant Garde', sans-serif; text-anchor: middle" x="267.779194" y="254.915078" transform="rotate(-0 267.779194 254.915078)">0.8</text>
     </g>
    </g>
    <g id="xtick_6">
     <g id="line2d_11">
      <path d="M 318.557244 241.077187 
L 318.557244 19.317187 
" clip-path="url(#p1be1d10ffa)" style="fill: none; stroke: #b0b0b0; stroke-opacity: 0.3; stroke-width: 0.8; stroke-linecap: square"/>
     </g>
     <g id="line2d_12">
      <g>
       <use xlink:href="#m6aad43067b" x="318.557244" y="241.077187" style="stroke: #000000; stroke-width: 0.8"/>
      </g>
     </g>
     <g id="text_6">
      <text style="font-size: 9px; font-family: 'DejaVu Sans', 'Bitstream Vera Sans', 'Computer Modern Sans Serif', 'Lucida Grande', 'Verdana', 'Geneva', 'Lucid', 'Arial', 'Helvetica', 'Avant Garde', sans-serif; text-anchor: middle" x="318.557244" y="254.915078" transform="rotate(-0 318.557244 254.915078)">1.0</text>
     </g>
    </g>
    <g id="text_7">
     <text style="font-size: 14px; font-family: 'DejaVu Sans', 'Bitstream Vera Sans', 'Computer Modern Sans Serif', 'Lucida Grande', 'Verdana', 'Geneva', 'Lucid', 'Arial', 'Helvetica', 'Avant Garde', sans-serif; text-anchor: middle" x="191.739062" y="271.715" transform="rotate(-0 191.739062 271.715)">Time</text>
    </g>
    <g id="text_8">
     <text style="font-size: 12px; font-family: 'DejaVu Sans', 'Bitstream Vera Sans', 'Computer Modern Sans Serif', 'Lucida Grande', 'Verdana', 'Geneva', 'Lucid', 'Arial', 'Helvetica', 'Avant Garde', sans-serif; text-anchor: end" x="331.239062" y="269.194375" transform="rotate(-0 331.239062 269.194375)">1e−2</text>
    </g>
   </g>
   <g id="matplotlib.axis_2">
    <g id="ytick_1">
     <g id="line2d_13">
      <path d="M 52.239063 216.862475 
L 331.239062 216.862475 
" clip-path="url(#p1be1d10ffa)" style="fill: none; stroke: #b0b0b0; stroke-opacity: 0.3; stroke-width: 0.8; stroke-linecap: square"/>
     </g>
     <g id="line2d_14">
      <defs>
       <path id="m1e5f129b7e" d="M 0 0 
L -3.5 0 
" style="stroke: #000000; stroke-width: 0.8"/>
      </defs>
      <g>
       <use xlink:href="#m1e5f129b7e" x="52.239063" y="216.862475" style="stroke: #000000; stroke-width: 0.8"/>
      </g>
     </g>
     <g id="text_9">
      <text style="font-size: 9px; font-family: 'DejaVu Sans', 'Bitstream Vera Sans', 'Computer Modern Sans Serif', 'Lucida Grande', 'Verdana', 'Geneva', 'Lucid', 'Arial', 'Helvetica', 'Avant Garde', sans-serif; text-anchor: end" x="45.239063" y="220.28142" transform="rotate(-0 45.239063 220.28142)">1.05</text>
     </g>
    </g>
    <g id="ytick_2">
     <g id="line2d_15">
      <path d="M 52.239063 163.854699 
L 331.239062 163.854699 
" clip-path="url(#p1be1d10ffa)" style="fill: none; stroke: #b0b0b0; stroke-opacity: 0.3; stroke-width: 0.8; stroke-linecap: square"/>
     </g>
     <g id="line2d_16">
      <g>
       <use xlink:href="#m1e5f129b7e" x="52.239063" y="163.854699" style="stroke: #000000; stroke-width: 0.8"/>
      </g>
     </g>
     <g id="text_10">
      <text style="font-size: 9px; font-family: 'DejaVu Sans', 'Bitstream Vera Sans', 'Computer Modern Sans Serif', 'Lucida Grande', 'Verdana', 'Geneva', 'Lucid', 'Arial', 'Helvetica', 'Avant Garde', sans-serif; text-anchor: end" x="45.239063" y="167.273644" transform="rotate(-0 45.239063 167.273644)">1.20</text>
     </g>
    </g>
    <g id="ytick_3">
     <g id="line2d_17">
      <path d="M 52.239063 110.846922 
L 331.239062 110.846922 
" clip-path="url(#p1be1d10ffa)" style="fill: none; stroke: #b0b0b0; stroke-opacity: 0.3; stroke-width: 0.8; stroke-linecap: square"/>
     </g>
     <g id="line2d_18">
      <g>
       <use xlink:href="#m1e5f129b7e" x="52.239063" y="110.846922" style="stroke: #000000; stroke-width: 0.8"/>
      </g>
     </g>
     <g id="text_11">
      <text style="font-size: 9px; font-family: 'DejaVu Sans', 'Bitstream Vera Sans', 'Computer Modern Sans Serif', 'Lucida Grande', 'Verdana', 'Geneva', 'Lucid', 'Arial', 'Helvetica', 'Avant Garde', sans-serif; text-anchor: end" x="45.239063" y="114.265867" transform="rotate(-0 45.239063 114.265867)">1.35</text>
     </g>
    </g>
    <g id="ytick_4">
     <g id="line2d_19">
      <path d="M 52.239063 57.839146 
L 331.239062 57.839146 
" clip-path="url(#p1be1d10ffa)" style="fill: none; stroke: #b0b0b0; stroke-opacity: 0.3; stroke-width: 0.8; stroke-linecap: square"/>
     </g>
     <g id="line2d_20">
      <g>
       <use xlink:href="#m1e5f129b7e" x="52.239063" y="57.839146" style="stroke: #000000; stroke-width: 0.8"/>
      </g>
     </g>
     <g id="text_12">
      <text style="font-size: 9px; font-family: 'DejaVu Sans', 'Bitstream Vera Sans', 'Computer Modern Sans Serif', 'Lucida Grande', 'Verdana', 'Geneva', 'Lucid', 'Arial', 'Helvetica', 'Avant Garde', sans-serif; text-anchor: end" x="45.239063" y="61.258091" transform="rotate(-0 45.239063 61.258091)">1.50</text>
     </g>
    </g>
    <g id="text_13">
     <text style="font-size: 14px; font-family: 'DejaVu Sans', 'Bitstream Vera Sans', 'Computer Modern Sans Serif', 'Lucida Grande', 'Verdana', 'Geneva', 'Lucid', 'Arial', 'Helvetica', 'Avant Garde', sans-serif; text-anchor: middle" x="17.836719" y="130.197187" transform="rotate(-90 17.836719 130.197187)">Temperature</text>
    </g>
    <g id="text_14">
     <text style="font-size: 12px; font-family: 'DejaVu Sans', 'Bitstream Vera Sans', 'Computer Modern Sans Serif', 'Lucida Grande', 'Verdana', 'Geneva', 'Lucid', 'Arial', 'Helvetica', 'Avant Garde', sans-serif; text-anchor: start" x="52.239063" y="16.317187" transform="rotate(-0 52.239063 16.317187)">1e3</text>
    </g>
   </g>
   <g id="line2d_21">
    <defs>
     <path id="m5b8b2e1410" d="M -0 2.828427 
L 2.828427 0 
L 0 -2.828427 
L -2.828427 -0 
z
" style="stroke: #808080; stroke-linejoin: miter"/>
    </defs>
    <g clip-path="url(#p1be1d10ffa)">
     <use xlink:href="#m5b8b2e1410" x="64.920881" y="230.997187" style="fill: #808080; stroke: #808080; stroke-linejoin: miter"/>
     <use xlink:href="#m5b8b2e1410" x="77.615393" y="229.245842" style="fill: #808080; stroke: #808080; stroke-linejoin: miter"/>
     <use xlink:href="#m5b8b2e1410" x="90.309906" y="225.425246" style="fill: #808080; stroke: #808080; stroke-linejoin: miter"/>
     <use xlink:href="#m5b8b2e1410" x="103.004419" y="220.373501" style="fill: #808080; stroke: #808080; stroke-linejoin: miter"/>
     <use xlink:href="#m5b8b2e1410" x="115.698931" y="213.747673" style="fill: #808080; stroke: #808080; stroke-linejoin: miter"/>
     <use xlink:href="#m5b8b2e1410" x="128.393444" y="204.417504" style="fill: #808080; stroke: #808080; stroke-linejoin: miter"/>
     <use xlink:href="#m5b8b2e1410" x="141.087957" y="189.381819" style="fill: #808080; stroke: #808080; stroke-linejoin: miter"/>
     <use xlink:href="#m5b8b2e1410" x="153.78247" y="156.465308" style="fill: #808080; stroke: #808080; stroke-linejoin: miter"/>
     <use xlink:href="#m5b8b2e1410" x="166.476982" y="43.672937" style="fill: #808080; stroke: #808080; stroke-linejoin: miter"/>
     <use xlink:href="#m5b8b2e1410" x="179.171495" y="31.194299" style="fill: #808080; stroke: #808080; stroke-linejoin: miter"/>
     <use xlink:href="#m5b8b2e1410" x="191.866008" y="30.266813" style="fill: #808080; stroke: #808080; stroke-linejoin: miter"/>
     <use xlink:href="#m5b8b2e1410" x="204.56052" y="29.931522" style="fill: #808080; stroke: #808080; stroke-linejoin: miter"/>
     <use xlink:href="#m5b8b2e1410" x="217.255033" y="29.753292" style="fill: #808080; stroke: #808080; stroke-linejoin: miter"/>
     <use xlink:href="#m5b8b2e1410" x="229.949546" y="29.642214" style="fill: #808080; stroke: #808080; stroke-linejoin: miter"/>
     <use xlink:href="#m5b8b2e1410" x="242.644058" y="29.567179" style="fill: #808080; stroke: #808080; stroke-linejoin: miter"/>
     <use xlink:href="#m5b8b2e1410" x="255.338571" y="29.514116" style="fill: #808080; stroke: #808080; stroke-linejoin: miter"/>
     <use xlink:href="#m5b8b2e1410" x="268.033084" y="29.475522" style="fill: #808080; stroke: #808080; stroke-linejoin: miter"/>
     <use xlink:href="#m5b8b2e1410" x="280.727596" y="29.446936" style="fill: #808080; stroke: #808080; stroke-linejoin: miter"/>
     <use xlink:href="#m5b8b2e1410" x="293.422109" y="29.425504" style="fill: #808080; stroke: #808080; stroke-linejoin: miter"/>
     <use xlink:href="#m5b8b2e1410" x="306.116622" y="29.409298" style="fill: #808080; stroke: #808080; stroke-linejoin: miter"/>
    </g>
   </g>
   <g id="line2d_22">
    <path d="M 64.920881 230.997187 
L 67.967564 230.870439 
L 71.268137 230.50059 
L 74.822601 229.872654 
L 78.884845 228.9291 
L 83.708759 227.578535 
L 89.294345 225.777123 
L 95.133821 223.652963 
L 100.719406 221.379671 
L 105.797212 219.076294 
L 110.367236 216.772924 
L 114.68337 214.355788 
L 118.745615 211.820738 
L 122.300078 209.351394 
L 125.600651 206.80376 
L 128.647334 204.188655 
L 131.440127 201.522479 
L 134.23292 198.543091 
L 136.771823 195.50214 
L 139.056835 192.432987 
L 141.341847 188.975803 
L 143.372969 185.500195 
L 145.404091 181.551412 
L 147.181323 177.610931 
L 148.958555 173.098376 
L 150.481896 168.656446 
L 152.005238 163.541104 
L 153.528579 157.562834 
L 154.798031 151.732754 
L 156.067482 144.908563 
L 157.336933 136.806044 
L 158.606384 127.054761 
L 159.875836 115.220063 
L 161.145287 100.963837 
L 162.922519 77.76161 
L 164.19197 61.84243 
L 165.207531 51.880962 
L 165.969202 46.439836 
L 166.730872 42.507504 
L 167.492543 39.714671 
L 168.254214 37.72257 
L 169.015885 36.277532 
L 170.031446 34.910151 
L 171.047007 33.953621 
L 172.316458 33.113608 
L 173.8398 32.421633 
L 175.617031 31.869944 
L 178.155934 31.348562 
L 181.456507 30.919241 
L 186.280422 30.536937 
L 193.643239 30.202687 
L 205.322191 29.917853 
L 225.379521 29.676974 
L 261.431937 29.494111 
L 318.557244 29.397189 
L 318.557244 29.397189 
" clip-path="url(#p1be1d10ffa)" style="fill: none; stroke-dasharray: 5.55,2.4; stroke-dashoffset: 0; stroke: #ffa500; stroke-width: 1.5"/>
   </g>
   <g id="line2d_23">
    <path d="M 64.920881 230.997187 
L 67.967564 230.870437 
L 71.268137 230.500572 
L 74.822601 229.872608 
L 78.884845 228.929015 
L 83.708759 227.578399 
L 89.294345 225.776922 
L 95.133821 223.652686 
L 100.719406 221.379309 
L 105.797212 219.075839 
L 110.367236 216.772369 
L 114.68337 214.355118 
L 118.745615 211.819938 
L 122.300078 209.350456 
L 125.600651 206.802666 
L 128.647334 204.187389 
L 131.440127 201.521021 
L 134.23292 198.541398 
L 136.771823 195.500184 
L 139.056835 192.430743 
L 141.341847 188.973204 
L 143.372969 185.497203 
L 145.404091 181.547929 
L 147.181323 177.606912 
L 148.958555 173.093675 
L 150.481896 168.651011 
L 152.005238 163.534732 
L 153.528579 157.555255 
L 154.798031 151.723888 
L 156.067482 144.898045 
L 157.336933 136.793394 
L 158.606384 127.039384 
L 159.875836 115.201279 
L 161.145287 100.941377 
L 162.922519 77.73678 
L 164.19197 61.821374 
L 165.207531 51.865438 
L 165.969202 46.428465 
L 166.730872 42.499388 
L 167.492543 39.708902 
L 168.254214 37.718419 
L 169.015885 36.274483 
L 170.031446 34.908055 
L 171.047007 33.952121 
L 172.316458 33.11257 
L 173.8398 32.420923 
L 175.617031 31.869458 
L 178.155934 31.348251 
L 181.456507 30.919045 
L 186.280422 30.536821 
L 193.643239 30.202623 
L 205.322191 29.91782 
L 225.379521 29.67696 
L 261.431937 29.494106 
L 318.557244 29.397192 
L 318.557244 29.397192 
" clip-path="url(#p1be1d10ffa)" style="fill: none; stroke: #008000; stroke-width: 1.5; stroke-linecap: square"/>
   </g>
   <g id="line2d_24">
    <path d="M 64.920881 230.997187 
L 67.967564 230.870437 
L 71.268137 230.500572 
L 74.822601 229.872608 
L 78.884845 228.929015 
L 83.708759 227.578399 
L 89.294345 225.776922 
L 95.133821 223.652686 
L 100.719406 221.379309 
L 105.797212 219.075839 
L 110.367236 216.772369 
L 114.68337 214.355118 
L 118.745615 211.819938 
L 122.300078 209.350456 
L 125.600651 206.802666 
L 128.647334 204.187389 
L 131.440127 201.521021 
L 134.23292 198.541399 
L 136.771823 195.500185 
L 139.056835 192.430743 
L 141.341847 188.973204 
L 143.372969 185.497203 
L 145.404091 181.547929 
L 147.181323 177.606912 
L 148.958555 173.093675 
L 150.481896 168.651011 
L 152.005238 163.534732 
L 153.528579 157.555255 
L 154.798031 151.723889 
L 156.067482 144.898046 
L 157.336933 136.793395 
L 158.606384 127.039386 
L 159.875836 115.201283 
L 161.145287 100.941382 
L 162.922519 77.736786 
L 164.19197 61.821379 
L 165.207531 51.865442 
L 165.969202 46.428468 
L 166.730872 42.49939 
L 167.492543 39.708903 
L 168.254214 37.71842 
L 169.015885 36.274484 
L 170.031446 34.908056 
L 171.047007 33.952122 
L 172.316458 33.112571 
L 173.8398 32.420923 
L 175.617031 31.869458 
L 178.155934 31.348251 
L 181.456507 30.919045 
L 186.280422 30.536821 
L 193.643239 30.202623 
L 205.322191 29.91782 
L 225.379521 29.67696 
L 261.431937 29.494106 
L 318.557244 29.397192 
L 318.557244 29.397192 
" clip-path="url(#p1be1d10ffa)" style="fill: none; stroke-dasharray: 9.6,2.4,1.5,2.4; stroke-dashoffset: 0; stroke: #ff0000; stroke-width: 1.5"/>
   </g>
   <g id="patch_3">
    <path d="M 52.239063 241.077187 
L 52.239063 19.317187 
" style="fill: none; stroke: #000000; stroke-width: 0.8; stroke-linejoin: miter; stroke-linecap: square"/>
   </g>
   <g id="patch_4">
    <path d="M 331.239062 241.077187 
L 331.239062 19.317187 
" style="fill: none; stroke: #000000; stroke-width: 0.8; stroke-linejoin: miter; stroke-linecap: square"/>
   </g>
   <g id="patch_5">
    <path d="M 52.239063 241.077187 
L 331.239062 241.077187 
" style="fill: none; stroke: #000000; stroke-width: 0.8; stroke-linejoin: miter; stroke-linecap: square"/>
   </g>
   <g id="patch_6">
    <path d="M 52.239063 19.317187 
L 331.239062 19.317187 
" style="fill: none; stroke: #000000; stroke-width: 0.8; stroke-linejoin: miter; stroke-linecap: square"/>
   </g>
   <g id="legend_1">
    <g id="patch_7">
     <path d="M 57.839063 73.719687 
L 140.080313 73.719687 
Q 141.680313 73.719687 141.680313 72.119687 
L 141.680313 24.917187 
Q 141.680313 23.317187 140.080313 23.317187 
L 57.839063 23.317187 
Q 56.239063 23.317187 56.239063 24.917187 
L 56.239063 72.119687 
Q 56.239063 73.719687 57.839063 73.719687 
L 57.839063 73.719687 
z
" style="fill: none; opacity: 0.8; stroke: #cccccc; stroke-linejoin: miter"/>
    </g>
    <g id="line2d_25">
     <g>
      <use xlink:href="#m5b8b2e1410" x="67.439063" y="29.795937" style="fill: #808080; stroke: #808080; stroke-linejoin: miter"/>
     </g>
    </g>
    <g id="text_15">
     <text style="font-size: 8px; font-family: 'DejaVu Sans', 'Bitstream Vera Sans', 'Computer Modern Sans Serif', 'Lucida Grande', 'Verdana', 'Geneva', 'Lucid', 'Arial', 'Helvetica', 'Avant Garde', sans-serif; text-anchor: start" x="81.839063" y="32.595937" transform="rotate(-0 81.839063 32.595937)">Cantera</text>
    </g>
    <g id="line2d_26">
     <path d="M 59.439063 41.796562 
L 67.439063 41.796562 
L 75.439063 41.796562 
" style="fill: none; stroke-dasharray: 5.55,2.4; stroke-dashoffset: 0; stroke: #ffa500; stroke-width: 1.5"/>
    </g>
    <g id="text_16">
     <text style="font-size: 8px; font-family: 'DejaVu Sans', 'Bitstream Vera Sans', 'Computer Modern Sans Serif', 'Lucida Grande', 'Verdana', 'Geneva', 'Lucid', 'Arial', 'Helvetica', 'Avant Garde', sans-serif; text-anchor: start" x="81.839063" y="44.596562" transform="rotate(-0 81.839063 44.596562)">FLINT Cantera</text>
    </g>
    <g id="line2d_27">
     <path d="M 59.439063 53.797187 
L 67.439063 53.797187 
L 75.439063 53.797187 
" style="fill: none; stroke: #008000; stroke-width: 1.5; stroke-linecap: square"/>
    </g>
    <g id="text_17">
     <text style="font-size: 8px; font-family: 'DejaVu Sans', 'Bitstream Vera Sans', 'Computer Modern Sans Serif', 'Lucida Grande', 'Verdana', 'Geneva', 'Lucid', 'Arial', 'Helvetica', 'Avant Garde', sans-serif; text-anchor: start" x="81.839063" y="56.597187" transform="rotate(-0 81.839063 56.597187)">FLINT Explicit</text>
    </g>
    <g id="line2d_28">
     <path d="M 59.439063 65.797812 
L 67.439063 65.797812 
L 75.439063 65.797812 
" style="fill: none; stroke-dasharray: 9.6,2.4,1.5,2.4; stroke-dashoffset: 0; stroke: #ff0000; stroke-width: 1.5"/>
    </g>
    <g id="text_18">
     <text style="font-size: 8px; font-family: 'DejaVu Sans', 'Bitstream Vera Sans', 'Computer Modern Sans Serif', 'Lucida Grande', 'Verdana', 'Geneva', 'Lucid', 'Arial', 'Helvetica', 'Avant Garde', sans-serif; text-anchor: start" x="81.839063" y="68.597812" transform="rotate(-0 81.839063 68.597812)">FLINT General</text>
    </g>
   </g>
  </g>
 </g>
 <defs>
  <clipPath id="p1be1d10ffa">
   <rect x="52.239063" y="19.317187" width="279" height="221.76"/>
  </clipPath>
 </defs>
</svg>
