<?xml version="1.0" encoding="utf-8" standalone="no"?>
<!DOCTYPE svg PUBLIC "-//W3C//DTD SVG 1.1//EN"
  "http://www.w3.org/Graphics/SVG/1.1/DTD/svg11.dtd">
<svg xmlns:xlink="http://www.w3.org/1999/xlink" width="332.712813pt" height="282.278281pt" viewBox="0 0 332.712813 282.278281" xmlns="http://www.w3.org/2000/svg" version="1.1">
 <metadata>
  <rdf:RDF xmlns:dc="http://purl.org/dc/elements/1.1/" xmlns:cc="http://creativecommons.org/ns#" xmlns:rdf="http://www.w3.org/1999/02/22-rdf-syntax-ns#">
   <cc:Work>
    <dc:type rdf:resource="http://purl.org/dc/dcmitype/StillImage"/>
    <dc:date>2026-10-08T13:01:15.436710</dc:date>
    <dc:format>image/svg+xml</dc:format>
    <dc:creator>
     <cc:Agent>
      <dc:title>Matplotlib v3.11.2, https://matplotlib.org/</dc:title>
     </cc:Agent>
    </dc:creator>
   </cc:Work>
  </rdf:RDF>
 </metadata>
 <defs>
  <style type="text/css">*{stroke-linejoin: round; stroke-linecap: butt}</style>
 </defs>
 <g id="figure_1">
  <g id="patch_1">
   <path d="M 0 282.278281 
L 332.712813 282.278281 
L 332.712813 0 
L 0 0 
L 0 282.278281 
z
" style="fill: none"/>
  </g>
  <g id="axes_1">
   <g id="patch_2">
    <path d="M 46.512813 241.077187 
L 325.512812 241.077187 
L 325.512812 19.317187 
L 46.512813 19.317187 
L 46.512813 241.077187 
z
" style="fill: none"/>
   </g>
   <g id="matplotlib.axis_1">
    <g id="xtick_1">
     <g id="line2d_1">
      <path d="M 58.94074 241.077187 
L 58.94074 19.317187 
" clip-path="url(#pde82a3455e)" style="fill: none; stroke: #b0b0b0; stroke-opacity: 0.3; stroke-width: 0.8; stroke-linecap: square"/>
     </g>
     <g id="line2d_2">
      <defs>
       <path id="md8e0efa645" d="M 0 0 
L 0 3.5 
" style="stroke: #000000; stroke-width: 0.8"/>
      </defs>
      <g>
       <use xlink:href="#md8e0efa645" x="58.94074" y="241.077187" style="stroke: #000000; stroke-width: 0.8"/>
      </g>
     </g>
     <g id="text_1">
      <text style="font-size: 9px; font-family: 'DejaVu Sans', 'Bitstream Vera Sans', 'Computer Modern Sans Serif', 'Lucida Grande', 'Verdana', 'Geneva', 'Lucid', 'Arial', 'Helvetica', 'Avant Garde', sans-serif; text-anchor: middle" x="58.94074" y="254.915078" transform="rotate(-0 58.94074 254.915078)">0.0</text>
     </g>
    </g>
    <g id="xtick_2">
     <g id="line2d_3">
      <path d="M 109.718791 241.077187 
L 109.718791 19.317187 
" clip-path="url(#pde82a3455e)" style="fill: none; stroke: #b0b0b0; stroke-opacity: 0.3; stroke-width: 0.8; stroke-linecap: square"/>
     </g>
     <g id="line2d_4">
      <g>
       <use xlink:href="#md8e0efa645" x="109.718791" y="241.077187" style="stroke: #000000; stroke-width: 0.8"/>
      </g>
     </g>
     <g id="text_2">
      <text style="font-size: 9px; font-family: 'DejaVu Sans', 'Bitstream Vera Sans', 'Computer Modern Sans Serif', 'Lucida Grande', 'Verdana', 'Geneva', 'Lucid', 'Arial', 'Helvetica', 'Avant Garde', sans-serif; text-anchor: middle" x="109.718791" y="254.915078" transform="rotate(-0 109.718791 254.915078)">0.4</text>
     </g>
    </g>
    <g id="xtick_3">
     <g id="line2d_5">
      <path d="M 160.496842 241.077187 
L 160.496842 19.317187 
" clip-path="url(#pde82a3455e)" style="fill: none; stroke: #b0b0b0; stroke-opacity: 0.3; stroke-width: 0.8; stroke-linecap: square"/>
     </g>
     <g id="line2d_6">
      <g>
       <use xlink:href="#md8e0efa645" x="160.496842" y="241.077187" style="stroke: #000000; stroke-width: 0.8"/>
      </g>
     </g>
     <g id="text_3">
      <text style="font-size: 9px; font-family: 'DejaVu Sans', 'Bitstream Vera Sans', 'Computer Modern Sans Serif', 'Lucida Grande', 'Verdana', 'Geneva', 'Lucid', 'Arial', 'Helvetica', 'Avant Garde', sans-serif; text-anchor: middle" x="160.496842" y="254.915078" transform="rotate(-0 160.496842 254.915078)">0.8</text>
     </g>
    </g>
    <g id="xtick_4">
     <g id="line2d_7">
      <path d="M 211.274893 241.077187 
L 211.274893 19.317187 
" clip-path="url(#pde82a3455e)" style="fill: none; stroke: #b0b0b0; stroke-opacity: 0.3; stroke-width: 0.8; stroke-linecap: square"/>
     </g>
     <g id="line2d_8">
      <g>
       <use xlink:href="#md8e0efa645" x="211.274893" y="241.077187" style="stroke: #000000; stroke-width: 0.8"/>
      </g>
     </g>
     <g id="text_4">
      <text style="font-size: 9px; font-family: 'DejaVu Sans', 'Bitstream Vera Sans', 'Computer Modern Sans Serif', 'Lucida Grande', 'Verdana', 'Geneva', 'Lucid', 'Arial', 'Helvetica', 'Avant Garde', sans-serif; text-anchor: middle" x="211.274893" y="254.915078" transform="rotate(-0 211.274893 254.915078)">1.2</text>
     </g>
    </g>
    <g id="xtick_5">
     <g id="line2d_9">
      <path d="M 262.052944 241.077187 
L 262.052944 19.317187 
" clip-path="url(#pde82a3455e)" style="fill: none; stroke: #b0b0b0; stroke-opacity: 0.3; stroke-width: 0.8; stroke-linecap: square"/>
     </g>
     <g id="line2d_10">
      <g>
       <use xlink:href="#md8e0efa645" x="262.052944" y="241.077187" style="stroke: #000000; stroke-width: 0.8"/>
      </g>
     </g>
     <g id="text_5">
      <text style="font-size: 9px; font-family: 'DejaVu Sans', 'Bitstream Vera Sans', 'Computer Modern Sans Serif', 'Lucida Grande', 'Verdana', 'Geneva', 'Lucid', 'Arial', 'Helvetica', 'Avant Garde', sans-serif; text-anchor: middle" x="262.052944" y="254.915078" transform="rotate(-0 262.052944 254.915078)">1.6</text>
     </g>
    </g>
    <g id="xtick_6">
     <g id="line2d_11">
      <path d="M 312.830994 241.077187 
L 312.830994 19.317187 
" clip-path="url(#pde82a3455e)" style="fill: none; stroke: #b0b0b0; stroke-opacity: 0.3; stroke-width: 0.8; stroke-linecap: square"/>
     </g>
     <g id="line2d_12">
      <g>
       <use xlink:href="#md8e0efa645" x="312.830994" y="241.077187" style="stroke: #000000; stroke-width: 0.8"/>
      </g>
     </g>
     <g id="text_6">
      <text style="font-size: 9px; font-family: 'DejaVu Sans', 'Bitstream Vera Sans', 'Computer Modern Sans Serif', 'Lucida Grande', 'Verdana', 'Geneva', 'Lucid', 'Arial', 'Helvetica', 'Avant Garde', sans-serif; text-anchor: middle" x="312.830994" y="254.915078" transform="rotate(-0 312.830994 254.915078)">2.0</text>
     </g>
    </g>
    <g id="text_7">
     <text style="font-size: 14px; font-family: 'DejaVu Sans', 'Bitstream Vera Sans', 'Computer Modern Sans Serif', 'Lucida Grande', 'Verdana', 'Geneva', 'Lucid', 'Arial', 'Helvetica', 'Avant Garde', sans-serif; text-anchor: middle" x="186.012812" y="271.715" transform="rotate(-0 186.012812 271.715)">Time</text>
    </g>
    <g id="text_8">
     <text style="font-size: 12px; font-family: 'DejaVu Sans', 'Bitstream Vera Sans', 'Computer Modern Sans Serif', 'Lucida Grande', 'Verdana', 'Geneva', 'Lucid', 'Arial', 'Helvetica', 'Avant Garde', sans-serif; text-anchor: end" x="325.512812" y="269.194375" transform="rotate(-0 325.512812 269.194375)">1e−1</text>
    </g>
   </g>
   <g id="matplotlib.axis_2">
    <g id="ytick_1">
     <g id="line2d_13">
      <path d="M 46.512813 213.059695 
L 325.512812 213.059695 
" clip-path="url(#pde82a3455e)" style="fill: none; stroke: #b0b0b0; stroke-opacity: 0.3; stroke-width: 0.8; stroke-linecap: square"/>
     </g>
     <g id="line2d_14">
      <defs>
       <path id="m81183cafd4" d="M 0 0 
L -3.5 0 
" style="stroke: #000000; stroke-width: 0.8"/>
      </defs>
      <g>
       <use xlink:href="#m81183cafd4" x="46.512813" y="213.059695" style="stroke: #000000; stroke-width: 0.8"/>
      </g>
     </g>
     <g id="text_9">
      <text style="font-size: 9px; font-family: 'DejaVu Sans', 'Bitstream Vera Sans', 'Computer Modern Sans Serif', 'Lucida Grande', 'Verdana', 'Geneva', 'Lucid', 'Arial', 'Helvetica', 'Avant Garde', sans-serif; text-anchor: end" x="39.512813" y="216.47864" transform="rotate(-0 39.512813 216.47864)">1.5</text>
     </g>
    </g>
    <g id="ytick_2">
     <g id="line2d_15">
      <path d="M 46.512813 168.218138 
L 325.512812 168.218138 
" clip-path="url(#pde82a3455e)" style="fill: none; stroke: #b0b0b0; stroke-opacity: 0.3; stroke-width: 0.8; stroke-linecap: square"/>
     </g>
     <g id="line2d_16">
      <g>
       <use xlink:href="#m81183cafd4" x="46.512813" y="168.218138" style="stroke: #000000; stroke-width: 0.8"/>
      </g>
     </g>
     <g id="text_10">
      <text style="font-size: 9px; font-family: 'DejaVu Sans', 'Bitstream Vera Sans', 'Computer Modern Sans Serif', 'Lucida Grande', 'Verdana', 'Geneva', 'Lucid', 'Arial', 'Helvetica', 'Avant Garde', sans-serif; text-anchor: end" x="39.512813" y="171.637084" transform="rotate(-0 39.512813 171.637084)">2.0</text>
     </g>
    </g>
    <g id="ytick_3">
     <g id="line2d_17">
      <path d="M 46.512813 123.376582 
L 325.512812 123.376582 
" clip-path="url(#pde82a3455e)" style="fill: none; stroke: #b0b0b0; stroke-opacity: 0.3; stroke-width: 0.8; stroke-linecap: square"/>
     </g>
     <g id="line2d_18">
      <g>
       <use xlink:href="#m81183cafd4" x="46.512813" y="123.376582" style="stroke: #000000; stroke-width: 0.8"/>
      </g>
     </g>
     <g id="text_11">
      <text style="font-size: 9px; font-family: 'DejaVu Sans', 'Bitstream Vera Sans', 'Computer Modern Sans Serif', 'Lucida Grande', 'Verdana', 'Geneva', 'Lucid', 'Arial', 'Helvetica', 'Avant Garde', sans-serif; text-anchor: end" x="39.512813" y="126.795527" transform="rotate(-0 39.512813 126.795527)">2.5</text>
     </g>
    </g>
    <g id="ytick_4">
     <g id="line2d_19">
      <path d="M 46.512813 78.535026 
L 325.512812 78.535026 
" clip-path="url(#pde82a3455e)" style="fill: none; stroke: #b0b0b0; stroke-opacity: 0.3; stroke-width: 0.8; stroke-linecap: square"/>
     </g>
     <g id="line2d_20">
      <g>
       <use xlink:href="#m81183cafd4" x="46.512813" y="78.535026" style="stroke: #000000; stroke-width: 0.8"/>
      </g>
     </g>
     <g id="text_12">
      <text style="font-size: 9px; font-family: 'DejaVu Sans', 'Bitstream Vera Sans', 'Computer Modern Sans Serif', 'Lucida Grande', 'Verdana', 'Geneva', 'Lucid', 'Arial', 'Helvetica', 'Avant Garde', sans-serif; text-anchor: end" x="39.512813" y="81.953971" transform="rotate(-0 39.512813 81.953971)">3.0</text>
     </g>
    </g>
    <g id="ytick_5">
     <g id="line2d_21">
      <path d="M 46.512813 33.693469 
L 325.512812 33.693469 
" clip-path="url(#pde82a3455e)" style="fill: none; stroke: #b0b0b0; stroke-opacity: 0.3; stroke-width: 0.8; stroke-linecap: square"/>
     </g>
     <g id="line2d_22">
      <g>
       <use xlink:href="#m81183cafd4" x="46.512813" y="33.693469" style="stroke: #000000; stroke-width: 0.8"/>
      </g>
     </g>
     <g id="text_13">
      <text style="font-size: 9px; font-family: 'DejaVu Sans', 'Bitstream Vera Sans', 'Computer Modern Sans Serif', 'Lucida Grande', 'Verdana', 'Geneva', 'Lucid', 'Arial', 'Helvetica', 'Avant Garde', sans-serif; text-anchor: end" x="39.512813" y="37.112414" transform="rotate(-0 39.512813 37.112414)">3.5</text>
     </g>
    </g>
    <g id="text_14">
     <text style="font-size: 14px; font-family: 'DejaVu Sans', 'Bitstream Vera Sans', 'Computer Modern Sans Serif', 'Lucida Grande', 'Verdana', 'Geneva', 'Lucid', 'Arial', 'Helvetica', 'Avant Garde', sans-serif; text-anchor: middle" x="17.836719" y="130.197187" transform="rotate(-90 17.836719 130.197187)">Temperature</text>
    </g>
    <g id="text_15">
     <text style="font-size: 12px; font-family: 'DejaVu Sans', 'Bitstream Vera Sans', 'Computer Modern Sans Serif', 'Lucida Grande', 'Verdana', 'Geneva', 'Lucid', 'Arial', 'Helvetica', 'Avant Garde', sans-serif; text-anchor: start" x="46.512813" y="16.317187" transform="rotate(-0 46.512813 16.317187)">1e3</text>
    </g>
   </g>
   <g id="line2d_23">
    <defs>
     <path id="mc691fae3a6" d="M -0 2.828427 
L 2.828427 0 
L 0 -2.828427 
L -2.828427 -0 
z
" style="stroke: #808080; stroke-linejoin: miter"/>
    </defs>
    <g clip-path="url(#pde82a3455e)">
     <use xlink:href="#mc691fae3a6" x="59.194631" y="230.996372" style="fill: #808080; stroke: #808080; stroke-linejoin: miter"/>
     <use xlink:href="#mc691fae3a6" x="71.889143" y="230.991635" style="fill: #808080; stroke: #808080; stroke-linejoin: miter"/>
     <use xlink:href="#mc691fae3a6" x="84.583656" y="230.956962" style="fill: #808080; stroke: #808080; stroke-linejoin: miter"/>
     <use xlink:href="#mc691fae3a6" x="97.278169" y="230.807196" style="fill: #808080; stroke: #808080; stroke-linejoin: miter"/>
     <use xlink:href="#mc691fae3a6" x="109.972681" y="229.956252" style="fill: #808080; stroke: #808080; stroke-linejoin: miter"/>
     <use xlink:href="#mc691fae3a6" x="122.667194" y="46.069735" style="fill: #808080; stroke: #808080; stroke-linejoin: miter"/>
     <use xlink:href="#mc691fae3a6" x="135.361707" y="34.868891" style="fill: #808080; stroke: #808080; stroke-linejoin: miter"/>
     <use xlink:href="#mc691fae3a6" x="148.05622" y="32.946713" style="fill: #808080; stroke: #808080; stroke-linejoin: miter"/>
     <use xlink:href="#mc691fae3a6" x="160.750732" y="32.00238" style="fill: #808080; stroke: #808080; stroke-linejoin: miter"/>
     <use xlink:href="#mc691fae3a6" x="173.445245" y="31.410366" style="fill: #808080; stroke: #808080; stroke-linejoin: miter"/>
     <use xlink:href="#mc691fae3a6" x="186.139758" y="30.993048" style="fill: #808080; stroke: #808080; stroke-linejoin: miter"/>
     <use xlink:href="#mc691fae3a6" x="198.83427" y="30.67763" style="fill: #808080; stroke: #808080; stroke-linejoin: miter"/>
     <use xlink:href="#mc691fae3a6" x="211.528783" y="30.427907" style="fill: #808080; stroke: #808080; stroke-linejoin: miter"/>
     <use xlink:href="#mc691fae3a6" x="224.223296" y="30.223532" style="fill: #808080; stroke: #808080; stroke-linejoin: miter"/>
     <use xlink:href="#mc691fae3a6" x="236.917808" y="30.052056" style="fill: #808080; stroke: #808080; stroke-linejoin: miter"/>
     <use xlink:href="#mc691fae3a6" x="249.612321" y="29.905369" style="fill: #808080; stroke: #808080; stroke-linejoin: miter"/>
     <use xlink:href="#mc691fae3a6" x="262.306834" y="29.777924" style="fill: #808080; stroke: #808080; stroke-linejoin: miter"/>
     <use xlink:href="#mc691fae3a6" x="275.001346" y="29.665782" style="fill: #808080; stroke: #808080; stroke-linejoin: miter"/>
     <use xlink:href="#mc691fae3a6" x="287.695859" y="29.566054" style="fill: #808080; stroke: #808080; stroke-linejoin: miter"/>
     <use xlink:href="#mc691fae3a6" x="300.390372" y="29.476565" style="fill: #808080; stroke: #808080; stroke-linejoin: miter"/>
    </g>
   </g>
   <g id="line2d_24">
    <path d="M 59.194631 230.996372 
L 92.200364 230.894394 
L 101.594303 230.672172 
L 106.672108 230.357844 
L 109.972681 229.956251 
L 112.257694 229.48434 
L 114.034926 228.909501 
L 115.304377 228.304172 
L 116.319938 227.624389 
L 117.335499 226.652036 
L 118.09717 225.591108 
L 118.60495 224.610002 
L 119.112731 223.248016 
L 119.620511 221.166411 
L 119.874401 219.594963 
L 120.128292 217.2852 
L 120.382182 213.243601 
L 120.636072 200.244551 
L 120.889962 77.356693 
L 121.143853 62.936783 
L 121.651633 53.076715 
L 122.159414 48.702074 
L 122.667194 46.069877 
L 123.428865 43.536492 
L 124.190536 41.8481 
L 125.206097 40.273286 
L 126.221658 39.136934 
L 127.491109 38.077223 
L 129.014451 37.128046 
L 130.791682 36.293758 
L 133.076695 35.486922 
L 135.869487 34.750273 
L 139.423951 34.05322 
L 143.993975 33.393981 
L 150.087342 32.757463 
L 157.957939 32.169937 
L 168.62133 31.608901 
L 183.093075 31.082207 
L 203.150405 30.586784 
L 231.586113 30.120851 
L 272.716334 29.685168 
L 312.830994 29.397377 
L 312.830994 29.397377 
" clip-path="url(#pde82a3455e)" style="fill: none; stroke-dasharray: 5.55,2.4; stroke-dashoffset: 0; stroke: #ffa500; stroke-width: 1.5"/>
   </g>
   <g id="line2d_25">
    <path d="M 59.194631 230.996372 
L 92.200364 230.894391 
L 101.594303 230.67216 
L 106.672108 230.357814 
L 109.972681 229.956195 
L 112.257694 229.484246 
L 114.034926 228.909354 
L 115.304377 228.30396 
L 116.319938 227.624092 
L 117.335499 226.651592 
L 118.09717 225.590467 
L 118.60495 224.609139 
L 119.112731 223.246766 
L 119.620511 221.164371 
L 119.874401 219.592115 
L 120.128292 217.280735 
L 120.382182 213.234691 
L 120.636072 200.189403 
L 120.889962 77.317446 
L 121.143853 62.923707 
L 121.651633 53.072132 
L 122.159414 48.699589 
L 122.667194 46.068227 
L 123.428865 43.535428 
L 124.190536 41.847362 
L 125.206097 40.272765 
L 126.221658 39.136544 
L 127.491109 38.076927 
L 129.014451 37.127824 
L 130.791682 36.293585 
L 133.076695 35.486789 
L 135.869487 34.750171 
L 139.423951 34.053141 
L 143.993975 33.393919 
L 150.087342 32.757415 
L 157.957939 32.169899 
L 168.62133 31.608871 
L 183.093075 31.082182 
L 203.150405 30.586763 
L 231.586113 30.120832 
L 272.716334 29.685151 
L 312.830994 29.397361 
L 312.830994 29.397361 
" clip-path="url(#pde82a3455e)" style="fill: none; stroke: #008000; stroke-width: 1.5; stroke-linecap: square"/>
   </g>
   <g id="line2d_26">
    <path d="M 59.194631 230.996372 
L 92.200364 230.894391 
L 101.594303 230.67216 
L 106.672108 230.357814 
L 109.972681 229.956195 
L 112.257694 229.484246 
L 114.034926 228.909354 
L 115.304377 228.30396 
L 116.319938 227.624092 
L 117.335499 226.651592 
L 118.09717 225.590467 
L 118.60495 224.609139 
L 119.112731 223.246766 
L 119.620511 221.164371 
L 119.874401 219.592115 
L 120.128292 217.280735 
L 120.382182 213.23469 
L 120.636072 200.189393 
L 120.889962 77.317431 
L 121.143853 62.923687 
L 121.651633 53.072101 
L 122.159414 48.699589 
L 122.667194 46.068215 
L 123.428865 43.535457 
L 124.190536 41.847354 
L 125.206097 40.272766 
L 126.221658 39.136537 
L 127.491109 38.076927 
L 129.014451 37.127822 
L 130.791682 36.293586 
L 133.076695 35.486789 
L 135.869487 34.750171 
L 139.423951 34.053141 
L 143.993975 33.39392 
L 150.087342 32.757416 
L 157.957939 32.1699 
L 168.62133 31.608872 
L 183.093075 31.082184 
L 203.150405 30.586765 
L 231.586113 30.120833 
L 272.716334 29.685152 
L 312.830994 29.397362 
L 312.830994 29.397362 
" clip-path="url(#pde82a3455e)" style="fill: none; stroke-dasharray: 9.6,2.4,1.5,2.4; stroke-dashoffset: 0; stroke: #ff0000; stroke-width: 1.5"/>
   </g>
   <g id="patch_3">
    <path d="M 46.512813 241.077187 
L 46.512813 19.317187 
" style="fill: none; stroke: #000000; stroke-width: 0.8; stroke-linejoin: miter; stroke-linecap: square"/>
   </g>
   <g id="patch_4">
    <path d="M 325.512812 241.077187 
L 325.512812 19.317187 
" style="fill: none; stroke: #000000; stroke-width: 0.8; stroke-linejoin: miter; stroke-linecap: square"/>
   </g>
   <g id="patch_5">
    <path d="M 46.512813 241.077187 
L 325.512813 241.077187 
" style="fill: none; stroke: #000000; stroke-width: 0.8; stroke-linejoin: miter; stroke-linecap: square"/>
   </g>
   <g id="patch_6">
    <path d="M 46.512813 19.317187 
L 325.512813 19.317187 
" style="fill: none; stroke: #000000; stroke-width: 0.8; stroke-linejoin: miter; stroke-linecap: square"/>
   </g>
   <g id="legend_1">
    <g id="patch_7">
     <path d="M 237.671562 237.077187 
L 319.912812 237.077187 
Q 321.512812 237.077187 321.512812 235.477187 
L 321.512812 188.274687 
Q 321.512812 186.674687 319.912812 186.674687 
L 237.671562 186.674687 
Q 236.071562 186.674687 236.071562 188.274687 
L 236.071562 235.477187 
Q 236.071562 237.077187 237.671562 237.077187 
L 237.671562 237.077187 
z
" style="fill: none; opacity: 0.8; stroke: #cccccc; stroke-linejoin: miter"/>
    </g>
    <g id="line2d_27">
     <g>
      <use xlink:href="#mc691fae3a6" x="247.271562" y="193.153437" style="fill: #808080; stroke: #808080; stroke-linejoin: miter"/>
     </g>
    </g>
    <g id="text_16">
     <text style="font-size: 8px; font-family: 'DejaVu Sans', 'Bitstream Vera Sans', 'Computer Modern Sans Serif', 'Lucida Grande', 'Verdana', 'Geneva', 'Lucid', 'Arial', 'Helvetica', 'Avant Garde', sans-serif; text-anchor: start" x="261.671562" y="195.953437" transform="rotate(-0 261.671562 195.953437)">Cantera</text>
    </g>
    <g id="line2d_28">
     <path d="M 239.271562 205.154062 
L 247.271562 205.154062 
L 255.271562 205.154062 
" style="fill: none; stroke-dasharray: 5.55,2.4; stroke-dashoffset: 0; stroke: #ffa500; stroke-width: 1.5"/>
    </g>
    <g id="text_17">
     <text style="font-size: 8px; font-family: 'DejaVu Sans', 'Bitstream Vera Sans', 'Computer Modern Sans Serif', 'Lucida Grande', 'Verdana', 'Geneva', 'Lucid', 'Arial', 'Helvetica', 'Avant Garde', sans-serif; text-anchor: start" x="261.671562" y="207.954062" transform="rotate(-0 261.671562 207.954062)">FLINT Cantera</text>
    </g>
    <g id="line2d_29">
     <path d="M 239.271562 217.154687 
L 247.271562 217.154687 
L 255.271562 217.154687 
" style="fill: none; stroke: #008000; stroke-width: 1.5; stroke-linecap: square"/>
    </g>
    <g id="text_18">
     <text style="font-size: 8px; font-family: 'DejaVu Sans', 'Bitstream Vera Sans', 'Computer Modern Sans Serif', 'Lucida Grande', 'Verdana', 'Geneva', 'Lucid', 'Arial', 'Helvetica', 'Avant Garde', sans-serif; text-anchor: start" x="261.671562" y="219.954687" transform="rotate(-0 261.671562 219.954687)">FLINT Explicit</text>
    </g>
    <g id="line2d_30">
     <path d="M 239.271562 229.155312 
L 247.271562 229.155312 
L 255.271562 229.155312 
" style="fill: none; stroke-dasharray: 9.6,2.4,1.5,2.4; stroke-dashoffset: 0; stroke: #ff0000; stroke-width: 1.5"/>
    </g>
    <g id="text_19">
     <text style="font-size: 8px; font-family: 'DejaVu Sans', 'Bitstream Vera Sans', 'Computer Modern Sans Serif', 'Lucida Grande', 'Verdana', 'Geneva', 'Lucid', 'Arial', 'Helvetica', 'Avant Garde', sans-serif; text-anchor: start" x="261.671562" y="231.955312" transform="rotate(-0 261.671562 231.955312)">FLINT General</text>
    </g>
   </g>
  </g>
 </g>
 <defs>
  <clipPath id="pde82a3455e">
   <rect x="46.512813" y="19.317187" width="279" height="221.76"/>
  </clipPath>
 </defs>
</svg>
